<svg width="1440" height="166" viewBox="0 0 1440 166" fill="none" xmlns="http://www.w3.org/2000/svg">
<path fill-rule="evenodd" clip-rule="evenodd" d="M0 92.448L34 86.4958C69 80.1184 137 68.2141 206 68.2141C274 68.2141 343 80.1184 411 83.5197C480 86.4958 549 80.1184 617 68.2141C686 55.8845 754 37.6028 823 31.2255C891 25.2733 960 31.2255 1029 49.5072C1097 68.2141 1166 98.8253 1234 107.754C1303 117.107 1371 104.778 1406 98.8253L1440 92.448V166H1406C1371 166 1303 166 1234 166C1166 166 1097 166 1029 166C960 166 891 166 823 166C754 166 686 166 617 166C549 166 480 166 411 166C343 166 274 166 206 166C137 166 69 166 34 166H0V92.448Z" fill="#AACCCC"/>
<path fill-rule="evenodd" clip-rule="evenodd" d="M0 63.448L34 57.4958C69 51.1184 137 39.2141 206 39.2141C274 39.2141 343 51.1184 411 54.5197C480 57.4958 549 51.1184 617 39.2141C686 26.8845 754 8.60282 823 2.22547C891 -3.72672 960 2.22547 1029 20.5072C1097 39.2141 1166 69.8253 1234 78.7536C1303 88.107 1371 75.7775 1406 69.8253L1440 63.448V137H1406C1371 137 1303 137 1234 137C1166 137 1097 137 1029 137C960 137 891 137 823 137C754 137 686 137 617 137C549 137 480 137 411 137C343 137 274 137 206 137C137 137 69 137 34 137H0V63.448Z" fill="#AACCCC" fill-opacity="0.5"/>
</svg>
