<svg width="1440" height="202" viewBox="0 0 1440 202" fill="none" xmlns="http://www.w3.org/2000/svg">
<path fill-rule="evenodd" clip-rule="evenodd" d="M0 112.342L34 105.086C69 97.3123 137 82.8011 206 82.8011C274 82.8011 343 97.3123 411 101.458C480 105.086 549 97.3123 617 82.8011C686 67.7717 754 45.4866 823 37.7128C891 30.4572 960 37.7128 1029 59.9978C1097 82.8011 1166 120.116 1234 130.999C1303 142.401 1371 127.371 1406 120.116L1440 112.342V202H1406C1371 202 1303 202 1234 202C1166 202 1097 202 1029 202C960 202 891 202 823 202C754 202 686 202 617 202C549 202 480 202 411 202C343 202 274 202 206 202C137 202 69 202 34 202H0V112.342Z" fill="#AACCCC"/>
<path fill-rule="evenodd" clip-rule="evenodd" d="M0 77.3417L34 70.0861C69 62.3123 137 47.8011 206 47.8011C274 47.8011 343 62.3123 411 66.4583C480 70.0861 549 62.3123 617 47.8011C686 32.7717 754 10.4866 823 2.7128C891 -4.54279 960 2.7128 1029 24.9978C1097 47.8011 1166 85.1155 1234 95.9989C1303 107.401 1371 92.3711 1406 85.1155L1440 77.3417V167H1406C1371 167 1303 167 1234 167C1166 167 1097 167 1029 167C960 167 891 167 823 167C754 167 686 167 617 167C549 167 480 167 411 167C343 167 274 167 206 167C137 167 69 167 34 167H0V77.3417Z" fill="#AACCCC" fill-opacity="0.5"/>
</svg>
