<svg width="1440" height="318" viewBox="0 0 1440 318" fill="none" xmlns="http://www.w3.org/2000/svg">
<path fill-rule="evenodd" clip-rule="evenodd" d="M0 177.338L34 165.955C69 153.759 137 130.993 206 130.993C274 130.993 343 153.759 411 160.264C480 165.955 549 153.759 617 130.993C686 107.414 754 72.4521 823 60.256C891 48.873 960 60.256 1029 95.2181C1097 130.993 1166 189.535 1234 206.609C1303 224.497 1371 200.918 1406 189.535L1440 177.338V318H1406C1371 318 1303 318 1234 318C1166 318 1097 318 1029 318C960 318 891 318 823 318C754 318 686 318 617 318C549 318 480 318 411 318C343 318 274 318 206 318C137 318 69 318 34 318H0V177.338Z" fill="#AACCCC"/>
<path fill-rule="evenodd" clip-rule="evenodd" d="M0 121.338L34 109.955C69 97.7594 137 74.9933 206 74.9933C274 74.9933 343 97.7594 411 104.264C480 109.955 549 97.7594 617 74.9933C686 51.4142 754 16.4521 823 4.25601C891 -7.12701 960 4.25601 1029 39.2181C1097 74.9933 1166 133.535 1234 150.609C1303 168.497 1371 144.918 1406 133.535L1440 121.338V262H1406C1371 262 1303 262 1234 262C1166 262 1097 262 1029 262C960 262 891 262 823 262C754 262 686 262 617 262C549 262 480 262 411 262C343 262 274 262 206 262C137 262 69 262 34 262H0V121.338Z" fill="#AACCCC" fill-opacity="0.5"/>
</svg>
